<svg xmlns="http://www.w3.org/2000/svg" version="1.1" xmlns:xlink="http://www.w3.org/1999/xlink" xmlns:svgjs="http://svgjs.com/svgjs" width="1434" height="569" preserveAspectRatio="none" viewBox="0 0 1434 569">
    <g mask="url(&quot;#SvgjsMask1032&quot;)" fill="none">
        <path d="M1578.28 195.84C1482.44 197.84 1405.31 328.73 1217.87 326.71 1030.43 324.69 978.33 14.32 857.46-10.56" stroke="rgba(255, 255, 255, 1)" stroke-width="2"></path>
        <path d="M1719.92 165.09C1610.21 168.54 1526.51 338.37 1315.39 335.79 1104.28 333.21 1051.29-42.97 910.87-77.17" stroke="rgba(255, 255, 255, 1)" stroke-width="2"></path>
        <path d="M1652.26 173.05C1481.15 175.64 1329.86 384.04 1000.92 383.58 671.98 383.12 539.51 2.97 349.58-12.13" stroke="rgba(255, 255, 255, 1)" stroke-width="2"></path>
        <path d="M1577.63 303.69C1437.94 308.01 1332.46 523.78 1062.11 519.91 791.76 516.04 727.8 23.88 546.59-22.88" stroke="rgba(255, 255, 255, 1)" stroke-width="2"></path>
        <path d="M1480.21 391.3C1313.1 389.72 1176.03 220.92 835.43 214.91 494.83 208.9 364.74-43.85 190.65-48.89" stroke="rgba(255, 255, 255, 1)" stroke-width="2"></path>
    </g>
    <defs>
        <mask id="SvgjsMask1032">
            <rect width="1434" height="569" fill="#ffffff"></rect>
        </mask>
    </defs>
</svg>