<svg xmlns="http://www.w3.org/2000/svg" version="1.1" xmlns:xlink="http://www.w3.org/1999/xlink" xmlns:svgjs="http://svgjs.com/svgjs" width="1434" height="569" preserveAspectRatio="none" viewBox="0 0 1434 569">
    <g mask="url(&quot;#SvgjsMask1024&quot;)" fill="none">
        <path d="M889.61-5.93C759.51 22.44 711.78 358.48 506.07 363.68 300.36 368.88 314.3 292.56 122.54 292.56-69.23 292.56-163.48 363.38-261 363.68" stroke="rgba(194, 142, 51, 0.48)" stroke-width="2"></path>
        <path d="M1113.68-57.09C955.36-8.76 921.9 431.99 680.38 443.56 438.85 455.13 463.72 372.43 247.07 372.43 30.42 372.44-76.45 443.32-186.23 443.56" stroke="rgba(194, 142, 51, 0.48)" stroke-width="2"></path>
        <path d="M1179.98-111.7C1033.1-64.49 1005.1 349.57 782.96 360.76 560.81 371.95 584.44 289.63 385.93 289.63 187.42 289.63 89.75 360.48-11.09 360.76" stroke="rgba(194, 142, 51, 0.48)" stroke-width="2"></path>
        <path d="M1026.85-74.79C884.19-24.45 946.18 394.64 650.13 398.75 354.08 402.86 87.4 279.63-103.31 279.26" stroke="rgba(194, 142, 51, 0.48)" stroke-width="2"></path>
        <path d="M855.57-103.81C740.44-60.2 819.74 265.78 557.04 287.85 294.35 309.92 114.84 451.35-40.01 452.86" stroke="rgba(194, 142, 51, 0.48)" stroke-width="2"></path>
    </g>
    <defs>
        <mask id="SvgjsMask1024">
            <rect width="1434" height="569" fill="#ffffff"></rect>
        </mask>
    </defs>
</svg>